<mxfile host="app.diagrams.net" modified="2023-08-25T16:22:10.151Z" agent="Mozilla/5.0 (Windows NT 10.0; Win64; x64) AppleWebKit/537.36 (KHTML, like Gecko) Chrome/116.0.0.0 Safari/537.36" etag="LM2V94yPzPgxHvfyH2PF" version="21.6.9" type="device">
  <diagram id="3228e29e-7158-1315-38df-8450db1d8a1d" name="Page-1">
    <mxGraphModel dx="3053" dy="1843" grid="1" gridSize="10" guides="1" tooltips="1" connect="1" arrows="1" fold="1" page="1" pageScale="1" pageWidth="2000" pageHeight="1700" background="#FFFFFF" math="0" shadow="0">
      <root>
        <mxCell id="0" />
        <mxCell id="1" parent="0" />
        <mxCell id="R6_tbuOiA4LubrBfz1OE-21567" value="" style="rounded=0;whiteSpace=wrap;html=1;fillColor=#dae8fc;strokeColor=#6c8ebf;align=right;opacity=60;fontSize=36;labelPosition=left;verticalLabelPosition=middle;verticalAlign=middle;" parent="1" vertex="1">
          <mxGeometry x="290" y="133" width="960" height="1525" as="geometry" />
        </mxCell>
        <mxCell id="R6_tbuOiA4LubrBfz1OE-21572" value="" style="rounded=0;whiteSpace=wrap;html=1;fillColor=#fff2cc;strokeColor=#d6b656;align=center;opacity=60;fontSize=36;" parent="1" vertex="1">
          <mxGeometry x="1390" y="133" width="410" height="1107" as="geometry" />
        </mxCell>
        <mxCell id="R6_tbuOiA4LubrBfz1OE-21588" value="菜鸟柜台" style="rounded=0;whiteSpace=wrap;html=1;shadow=0;glass=0;sketch=0;fillStyle=auto;fontSize=36;fillColor=#d5e8d4;opacity=60;strokeColor=#82b366;" parent="1" vertex="1">
          <mxGeometry x="290" y="1060" width="240" height="598" as="geometry" />
        </mxCell>
        <mxCell id="R6_tbuOiA4LubrBfz1OE-21591" value="京东快递" style="rounded=0;whiteSpace=wrap;html=1;shadow=0;glass=0;sketch=0;fillStyle=auto;fontSize=36;fillColor=#d80073;opacity=60;fontColor=#ffffff;strokeColor=#A50040;" parent="1" vertex="1">
          <mxGeometry x="750" y="123" width="500" height="160" as="geometry" />
        </mxCell>
        <mxCell id="R6_tbuOiA4LubrBfz1OE-21595" value="&lt;font style=&quot;font-size: 30px;&quot;&gt;驿站入口&lt;/font&gt;" style="shape=flexArrow;endArrow=classic;html=1;rounded=0;fontSize=36;width=64.76190476190476;endSize=18.83809523809524;endWidth=52.06349206349206;" parent="1" edge="1">
          <mxGeometry width="50" height="50" relative="1" as="geometry">
            <mxPoint x="1480" y="1473" as="sourcePoint" />
            <mxPoint x="1290" y="1473" as="targetPoint" />
          </mxGeometry>
        </mxCell>
        <mxCell id="YbemHmgVhAmF9NjTrUaJ-111" value="&lt;font style=&quot;font-size: 60px;&quot;&gt;本部菜鸟驿站货架&lt;/font&gt;" style="text;html=1;resizable=0;autosize=1;align=center;verticalAlign=middle;points=[];fillColor=none;strokeColor=none;rounded=0;fontSize=36;" parent="1" vertex="1">
          <mxGeometry x="750" y="10" width="500" height="90" as="geometry" />
        </mxCell>
        <mxCell id="xjmqVt3X7ruV0F9-SoPd-4" value="作者: Mr.Hope" style="text;html=1;resizable=0;autosize=1;align=center;verticalAlign=middle;points=[];fillColor=none;strokeColor=none;rounded=0;fontSize=18;" parent="1" vertex="1">
          <mxGeometry x="20" y="1657" width="140" height="40" as="geometry" />
        </mxCell>
        <mxCell id="fjenpYvR12AHIcLg_xTA-1" value="" style="group" vertex="1" connectable="0" parent="1">
          <mxGeometry x="1880" y="30" width="90" height="170" as="geometry" />
        </mxCell>
        <mxCell id="R6_tbuOiA4LubrBfz1OE-21565" value="" style="endArrow=classic;html=1;rounded=0;fontSize=36;strokeWidth=8;" parent="fjenpYvR12AHIcLg_xTA-1" edge="1">
          <mxGeometry width="50" height="50" relative="1" as="geometry">
            <mxPoint y="170" as="sourcePoint" />
            <mxPoint as="targetPoint" />
          </mxGeometry>
        </mxCell>
        <mxCell id="R6_tbuOiA4LubrBfz1OE-21566" value="&lt;font style=&quot;font-size: 48px;&quot;&gt;北&lt;/font&gt;" style="text;html=1;resizable=0;autosize=1;align=center;verticalAlign=middle;points=[];fillColor=none;strokeColor=none;rounded=0;fontSize=36;" parent="fjenpYvR12AHIcLg_xTA-1" vertex="1">
          <mxGeometry x="19.995225547119215" y="50" width="70" height="70" as="geometry" />
        </mxCell>
        <mxCell id="fjenpYvR12AHIcLg_xTA-3" value="&lt;font style=&quot;font-size: 32px;&quot;&gt;临时架&lt;/font&gt;&lt;br&gt;&lt;font style=&quot;font-size: 21px;&quot;&gt;（错拿的快递可能在这）&lt;/font&gt;" style="rounded=0;whiteSpace=wrap;html=1;shadow=0;glass=0;sketch=0;fillColor=#ffe6cc;strokeColor=#d79b00;fontSize=36;" vertex="1" parent="1">
          <mxGeometry x="1140" y="1065.5" width="110" height="250" as="geometry" />
        </mxCell>
        <mxCell id="fjenpYvR12AHIcLg_xTA-5" value="02/01" style="rounded=1;whiteSpace=wrap;html=1;shadow=0;glass=0;sketch=1;fillStyle=auto;fontSize=32;fontColor=none;fillColor=#E85642;gradientColor=none;opacity=60;" vertex="1" parent="1">
          <mxGeometry x="990" y="1018" width="90" height="280" as="geometry" />
        </mxCell>
        <mxCell id="fjenpYvR12AHIcLg_xTA-6" value="04/03" style="rounded=1;whiteSpace=wrap;html=1;shadow=0;glass=0;sketch=1;fillStyle=auto;fontSize=32;fontColor=none;fillColor=#E85642;gradientColor=none;opacity=60;" vertex="1" parent="1">
          <mxGeometry x="850" y="1018" width="90" height="280" as="geometry" />
        </mxCell>
        <mxCell id="fjenpYvR12AHIcLg_xTA-7" value="06/05" style="rounded=1;whiteSpace=wrap;html=1;shadow=0;glass=0;sketch=1;fillStyle=auto;fontSize=32;fontColor=none;fillColor=#E85642;gradientColor=none;opacity=60;" vertex="1" parent="1">
          <mxGeometry x="670" y="1018" width="90" height="280" as="geometry" />
        </mxCell>
        <mxCell id="fjenpYvR12AHIcLg_xTA-8" value="08&lt;br style=&quot;font-size: 32px;&quot;&gt;07" style="rounded=1;whiteSpace=wrap;html=1;shadow=0;glass=0;sketch=1;fillStyle=auto;fontSize=32;fontColor=none;fillColor=#E85642;gradientColor=none;opacity=60;spacing=2;" vertex="1" parent="1">
          <mxGeometry x="760" y="883" width="370" height="70" as="geometry" />
        </mxCell>
        <mxCell id="fjenpYvR12AHIcLg_xTA-10" value="10&lt;br style=&quot;font-size: 32px;&quot;&gt;09" style="rounded=1;whiteSpace=wrap;html=1;shadow=0;glass=0;sketch=1;fillStyle=auto;fontSize=32;fontColor=none;fillColor=#E85642;gradientColor=none;opacity=60;spacing=2;" vertex="1" parent="1">
          <mxGeometry x="760" y="772" width="370" height="70" as="geometry" />
        </mxCell>
        <mxCell id="fjenpYvR12AHIcLg_xTA-11" style="edgeStyle=orthogonalEdgeStyle;rounded=0;orthogonalLoop=1;jettySize=auto;html=1;exitX=0.5;exitY=1;exitDx=0;exitDy=0;" edge="1" parent="1" source="fjenpYvR12AHIcLg_xTA-8" target="fjenpYvR12AHIcLg_xTA-8">
          <mxGeometry relative="1" as="geometry" />
        </mxCell>
        <mxCell id="fjenpYvR12AHIcLg_xTA-12" value="12&lt;br style=&quot;font-size: 32px;&quot;&gt;11" style="rounded=1;whiteSpace=wrap;html=1;shadow=0;glass=0;sketch=1;fillStyle=auto;fontSize=32;fontColor=none;fillColor=#E85642;gradientColor=none;opacity=60;spacing=2;" vertex="1" parent="1">
          <mxGeometry x="760" y="653" width="370" height="70" as="geometry" />
        </mxCell>
        <mxCell id="fjenpYvR12AHIcLg_xTA-13" value="14&lt;br style=&quot;font-size: 32px;&quot;&gt;13" style="rounded=1;whiteSpace=wrap;html=1;shadow=0;glass=0;sketch=1;fillStyle=auto;fontSize=32;fontColor=none;fillColor=#E85642;gradientColor=none;opacity=60;spacing=2;" vertex="1" parent="1">
          <mxGeometry x="760" y="547" width="370" height="70" as="geometry" />
        </mxCell>
        <mxCell id="fjenpYvR12AHIcLg_xTA-14" value="16&lt;br style=&quot;font-size: 32px;&quot;&gt;15" style="rounded=1;whiteSpace=wrap;html=1;shadow=0;glass=0;sketch=1;fillStyle=auto;fontSize=32;fontColor=none;fillColor=#E85642;gradientColor=none;opacity=60;spacing=2;" vertex="1" parent="1">
          <mxGeometry x="760" y="439" width="370" height="70" as="geometry" />
        </mxCell>
        <mxCell id="fjenpYvR12AHIcLg_xTA-15" value="18&lt;br style=&quot;font-size: 32px;&quot;&gt;17" style="rounded=1;whiteSpace=wrap;html=1;shadow=0;glass=0;sketch=1;fillStyle=auto;fontSize=32;fontColor=none;fillColor=#E85642;gradientColor=none;opacity=60;spacing=2;" vertex="1" parent="1">
          <mxGeometry x="760" y="330" width="370" height="70" as="geometry" />
        </mxCell>
        <mxCell id="fjenpYvR12AHIcLg_xTA-18" value="顺丰快递" style="rounded=0;whiteSpace=wrap;html=1;shadow=0;glass=0;sketch=0;fillStyle=auto;fontSize=36;fillColor=#6a00ff;opacity=60;fontColor=#ffffff;strokeColor=#3700CC;" vertex="1" parent="1">
          <mxGeometry x="50" y="133" width="240" height="300" as="geometry" />
        </mxCell>
        <mxCell id="fjenpYvR12AHIcLg_xTA-19" value="22&lt;br style=&quot;font-size: 32px;&quot;&gt;21" style="rounded=1;whiteSpace=wrap;html=1;shadow=0;glass=0;sketch=1;fillStyle=auto;fontSize=32;fontColor=none;fillColor=#E85642;gradientColor=none;opacity=60;spacing=2;" vertex="1" parent="1">
          <mxGeometry x="290" y="790" width="370" height="70" as="geometry" />
        </mxCell>
        <mxCell id="fjenpYvR12AHIcLg_xTA-20" value="24&lt;br style=&quot;font-size: 32px;&quot;&gt;23" style="rounded=1;whiteSpace=wrap;html=1;shadow=0;glass=0;sketch=1;fillStyle=auto;fontSize=32;fontColor=none;fillColor=#E85642;gradientColor=none;opacity=60;spacing=2;" vertex="1" parent="1">
          <mxGeometry x="290" y="653" width="370" height="70" as="geometry" />
        </mxCell>
        <mxCell id="fjenpYvR12AHIcLg_xTA-21" value="26&lt;br style=&quot;font-size: 32px;&quot;&gt;25" style="rounded=1;whiteSpace=wrap;html=1;shadow=0;glass=0;sketch=1;fillStyle=auto;fontSize=32;fontColor=none;fillColor=#E85642;gradientColor=none;opacity=60;spacing=2;" vertex="1" parent="1">
          <mxGeometry x="290" y="520" width="370" height="70" as="geometry" />
        </mxCell>
        <mxCell id="fjenpYvR12AHIcLg_xTA-22" value="柱" style="rounded=0;whiteSpace=wrap;html=1;glass=0;shadow=0;sketch=0;fillColor=#C2C2C2;gradientColor=none;strokeColor=#666666;fillStyle=auto;fontSize=24;" vertex="1" parent="1">
          <mxGeometry x="480" y="920" width="140" height="110" as="geometry" />
        </mxCell>
        <mxCell id="fjenpYvR12AHIcLg_xTA-23" value="柱" style="rounded=0;whiteSpace=wrap;html=1;glass=0;shadow=0;sketch=0;fillColor=#C2C2C2;gradientColor=none;strokeColor=#666666;fillStyle=auto;fontSize=24;" vertex="1" parent="1">
          <mxGeometry x="490" y="367" width="140" height="110" as="geometry" />
        </mxCell>
        <mxCell id="fjenpYvR12AHIcLg_xTA-26" value="&lt;p style=&quot;line-height: 100%;&quot;&gt;67&lt;br&gt;68&lt;/p&gt;" style="rounded=1;whiteSpace=wrap;html=1;shadow=0;glass=0;sketch=1;fillStyle=auto;fontSize=32;fontColor=none;fillColor=#E85642;gradientColor=none;opacity=60;spacing=2;" vertex="1" parent="1">
          <mxGeometry x="1430" y="160" width="370" height="66" as="geometry" />
        </mxCell>
        <mxCell id="fjenpYvR12AHIcLg_xTA-27" value="&lt;p style=&quot;line-height: 100%;&quot;&gt;70&lt;br&gt;69&lt;/p&gt;" style="rounded=1;whiteSpace=wrap;html=1;shadow=0;glass=0;sketch=1;fillStyle=auto;fontSize=32;fontColor=none;fillColor=#E85642;gradientColor=none;opacity=60;spacing=2;" vertex="1" parent="1">
          <mxGeometry x="1430" y="244" width="370" height="66" as="geometry" />
        </mxCell>
        <mxCell id="fjenpYvR12AHIcLg_xTA-28" value="&lt;p style=&quot;line-height: 100%;&quot;&gt;74&lt;br&gt;75&lt;/p&gt;" style="rounded=1;whiteSpace=wrap;html=1;shadow=0;glass=0;sketch=1;fillStyle=auto;fontSize=32;fontColor=none;fillColor=#E85642;gradientColor=none;opacity=60;spacing=2;" vertex="1" parent="1">
          <mxGeometry x="1430" y="330" width="370" height="66" as="geometry" />
        </mxCell>
        <mxCell id="fjenpYvR12AHIcLg_xTA-29" value="&lt;p style=&quot;line-height: 100%;&quot;&gt;66&lt;br&gt;65&lt;/p&gt;" style="rounded=1;whiteSpace=wrap;html=1;shadow=0;glass=0;sketch=1;fillStyle=auto;fontSize=32;fontColor=none;fillColor=#E85642;gradientColor=none;opacity=60;spacing=2;" vertex="1" parent="1">
          <mxGeometry x="1430" y="416" width="370" height="66" as="geometry" />
        </mxCell>
        <mxCell id="fjenpYvR12AHIcLg_xTA-30" value="&lt;p style=&quot;line-height: 100%;&quot;&gt;64&lt;br&gt;63&lt;/p&gt;" style="rounded=1;whiteSpace=wrap;html=1;shadow=0;glass=0;sketch=1;fillStyle=auto;fontSize=32;fontColor=none;fillColor=#E85642;gradientColor=none;opacity=60;spacing=2;" vertex="1" parent="1">
          <mxGeometry x="1430" y="502" width="370" height="66" as="geometry" />
        </mxCell>
        <mxCell id="fjenpYvR12AHIcLg_xTA-31" value="&lt;p style=&quot;line-height: 100%;&quot;&gt;62&lt;br&gt;61&lt;/p&gt;" style="rounded=1;whiteSpace=wrap;html=1;shadow=0;glass=0;sketch=1;fillStyle=auto;fontSize=32;fontColor=none;fillColor=#E85642;gradientColor=none;opacity=60;spacing=2;" vertex="1" parent="1">
          <mxGeometry x="1430" y="590" width="370" height="66" as="geometry" />
        </mxCell>
        <mxCell id="fjenpYvR12AHIcLg_xTA-33" value="自助取件机" style="rounded=1;whiteSpace=wrap;html=1;shadow=0;glass=0;sketch=0;fillStyle=auto;fontSize=28;fillColor=#e1d5e7;opacity=60;strokeColor=#9673a6;" vertex="1" parent="1">
          <mxGeometry x="1490" y="1110" width="100" height="100" as="geometry" />
        </mxCell>
        <mxCell id="fjenpYvR12AHIcLg_xTA-34" value="60&lt;br&gt;59" style="rounded=1;whiteSpace=wrap;html=1;shadow=0;glass=0;sketch=1;fillStyle=auto;fontSize=32;fontColor=none;fillColor=#E85642;gradientColor=none;opacity=60;spacing=2;" vertex="1" parent="1">
          <mxGeometry x="1430" y="677" width="370" height="66" as="geometry" />
        </mxCell>
        <mxCell id="fjenpYvR12AHIcLg_xTA-35" value="58&lt;br&gt;57" style="rounded=1;whiteSpace=wrap;html=1;shadow=0;glass=0;sketch=1;fillStyle=auto;fontSize=32;fontColor=none;fillColor=#E85642;gradientColor=none;opacity=60;spacing=2;" vertex="1" parent="1">
          <mxGeometry x="1430" y="767" width="370" height="66" as="geometry" />
        </mxCell>
        <mxCell id="fjenpYvR12AHIcLg_xTA-36" value="56&lt;br&gt;55" style="rounded=1;whiteSpace=wrap;html=1;shadow=0;glass=0;sketch=1;fillStyle=auto;fontSize=32;fontColor=none;fillColor=#E85642;gradientColor=none;opacity=60;spacing=2;" vertex="1" parent="1">
          <mxGeometry x="1430" y="857.5" width="370" height="66" as="geometry" />
        </mxCell>
        <mxCell id="fjenpYvR12AHIcLg_xTA-37" value="54&lt;br&gt;53" style="rounded=1;whiteSpace=wrap;html=1;shadow=0;glass=0;sketch=1;fillStyle=auto;fontSize=32;fontColor=none;fillColor=#E85642;gradientColor=none;opacity=60;spacing=2;" vertex="1" parent="1">
          <mxGeometry x="1430" y="943" width="370" height="66" as="geometry" />
        </mxCell>
        <mxCell id="fjenpYvR12AHIcLg_xTA-38" value="52&lt;br&gt;51" style="rounded=1;whiteSpace=wrap;html=1;shadow=0;glass=0;sketch=1;fillStyle=auto;fontSize=32;fontColor=none;fillColor=#E85642;gradientColor=none;opacity=60;spacing=2;" vertex="1" parent="1">
          <mxGeometry x="1430" y="1025" width="370" height="66" as="geometry" />
        </mxCell>
        <mxCell id="fjenpYvR12AHIcLg_xTA-40" value="自助取件机" style="rounded=1;whiteSpace=wrap;html=1;shadow=0;glass=0;sketch=0;fillStyle=auto;fontSize=28;fillColor=#e1d5e7;opacity=60;strokeColor=#9673a6;" vertex="1" parent="1">
          <mxGeometry x="1630" y="1110" width="100" height="100" as="geometry" />
        </mxCell>
        <mxCell id="fjenpYvR12AHIcLg_xTA-41" value="自助取件机" style="rounded=1;whiteSpace=wrap;html=1;shadow=0;glass=0;sketch=0;fillStyle=auto;fontSize=28;fillColor=#e1d5e7;opacity=60;strokeColor=#9673a6;" vertex="1" parent="1">
          <mxGeometry x="750" y="1340" width="100" height="100" as="geometry" />
        </mxCell>
        <mxCell id="fjenpYvR12AHIcLg_xTA-42" value="自助取件机" style="rounded=1;whiteSpace=wrap;html=1;shadow=0;glass=0;sketch=0;fillStyle=auto;fontSize=28;fillColor=#e1d5e7;opacity=60;strokeColor=#9673a6;" vertex="1" parent="1">
          <mxGeometry x="930" y="1350" width="100" height="100" as="geometry" />
        </mxCell>
      </root>
    </mxGraphModel>
  </diagram>
</mxfile>
